<svg width="23" height="23" viewBox="0 0 23 23" fill="none" xmlns="http://www.w3.org/2000/svg">
<path id="Vector" d="M1.99989 11.9483L11.1899 2.75838C12.3157 1.63254 13.8427 1.00006 15.4349 1.00006C17.0271 1.00006 18.554 1.63254 19.6799 2.75838C20.8057 3.88422 21.4382 5.41118 21.4382 7.00335C21.4382 8.59552 20.8057 10.1225 19.6799 11.2483L10.4899 20.4383C9.73933 21.1888 8.72135 21.6105 7.65989 21.6105C6.59844 21.6105 5.58046 21.1888 4.82989 20.4383C4.07933 19.6877 3.65767 18.6697 3.65767 17.6083C3.65767 16.5468 4.07933 15.5289 4.82989 14.7783L14.0299 5.58836C14.4052 5.21308 14.9142 5.00225 15.4449 5.00225C15.9756 5.00225 16.4846 5.21308 16.8599 5.58836C17.2352 5.96364 17.446 6.47263 17.446 7.00335C17.446 7.53407 17.2352 8.04306 16.8599 8.41834L8.36989 16.8983" stroke="#4DB6AC" stroke-width="2" stroke-linecap="square" stroke-linejoin="round"/>
</svg>
