<svg width="23" height="23" viewBox="0 0 23 23" fill="none" xmlns="http://www.w3.org/2000/svg">
<path d="M22.8179 3.87444C23.1202 3.47388 23.0376 2.90061 22.6344 2.60039L19.3862 0.182025C18.9794 -0.120828 18.4058 -0.0362971 18.1034 0.364263L15.6104 3.66605L20.3248 7.17623L22.8179 3.87444Z" fill="#6571FF"/>
<path d="M7.6429 20.3856C9.19411 19.7773 11.5253 18.8314 11.7274 18.5636L19.3494 8.46873L14.6351 4.95856L7.01294 15.0535C6.81105 15.321 6.54833 17.8067 6.3938 19.4548C6.33031 20.1312 7.00661 20.6349 7.6429 20.3854V20.3856Z" fill="#6571FF"/>
<path d="M22.1861 21.3834H0.813883C0.364388 21.3834 0 21.7452 0 22.1916C0 22.6379 0.364388 22.9998 0.813883 22.9998H22.1861C22.6356 22.9998 23 22.6379 23 22.1916C23 21.7452 22.6356 21.3834 22.1861 21.3834Z" fill="#6571FF"/>
</svg>
