<svg width="214" height="27" viewBox="0 0 214 27" fill="none" xmlns="http://www.w3.org/2000/svg">
<g id="Group 105">
<g id="Group">
<path id="Vector" d="M4.11398 17.4869L1.29184 26.7424H0.0104141L3.47501 15.3923L4.11398 17.4869Z" fill="white"/>
<path id="Vector_2" d="M13.6396 13.6241L13.0006 11.5272L9.48394 0H9.42837H8.22219H8.16778L5.30628 9.37934L5.94757 11.4774L8.82528 2.03672L12.3582 13.6241L13.0006 15.7221L16.3599 26.7424H17.6401L13.6396 13.6241Z" fill="white"/>
<path id="Vector_3" d="M31.4592 26.7424H30.1847L26.9493 16.1352V16.1329L26.308 14.0383V14.036L22.0273 0H23.3076L26.9481 11.9391L27.5871 14.0337L31.4476 26.6949C31.4534 26.7111 31.4557 26.725 31.4592 26.7412V26.7424Z" fill="white"/>
<mask id="mask0_188_2" style="mask-type:luminance" maskUnits="userSpaceOnUse" x="0" y="0" width="32" height="27">
<g id="clippath">
<path id="Vector_4" d="M12.3836 17.7727L9.64947 26.7424H8.13769L4.71476 15.5184L4.07579 13.4204L0.0243089 0.140025C0.0104181 0.0937355 0 0.0439747 0 0H1.26175L4.71476 11.3223L5.35374 13.4204L8.89242 25.0239L11.7458 15.6747L12.3848 17.7727H12.3836ZM30.635 0L27.5917 9.97068L28.2307 12.0687L31.9129 0H30.635ZM25.7084 16.1491L22.9661 25.1431L16.5532 4.10816L17.7617 0.140025C17.7756 0.0937355 17.7837 0.0462891 17.786 0H16.5242L15.9107 2.01011L15.2995 0H14.0216C14.0239 0.0162012 14.0274 0.0335596 14.0332 0.0497608L15.2729 4.11048L13.6037 9.5807L14.2427 11.6788L15.9119 6.20622L22.1766 26.7436H23.7567L26.3485 18.2483V18.246L25.7095 16.1514L25.7084 16.1491Z" fill="white"/>
</g>
</mask>
<g mask="url(#mask0_188_2)">
<g id="Group_2">
<path id="Vector_5" d="M13.7473 -3.8147e-06H13.6037V26.7424H13.7473V-3.8147e-06Z" fill="#11A8B9"/>
<path id="Vector_6" d="M14.2381 -3.8147e-06H13.7473V26.7424H14.2381V-3.8147e-06Z" fill="#11A8BA"/>
<path id="Vector_7" d="M14.7289 -3.8147e-06H14.2381V26.7424H14.7289V-3.8147e-06Z" fill="#12A8BB"/>
<path id="Vector_8" d="M15.2197 -3.8147e-06H14.7289V26.7424H15.2197V-3.8147e-06Z" fill="#12A8BC"/>
<path id="Vector_9" d="M15.7105 -3.8147e-06H15.2197V26.7424H15.7105V-3.8147e-06Z" fill="#13A8BD"/>
<path id="Vector_10" d="M16.2013 -3.8147e-06H15.7105V26.7424H16.2013V-3.8147e-06Z" fill="#14A9BF"/>
<path id="Vector_11" d="M16.6932 -3.8147e-06H16.2024V26.7424H16.6932V-3.8147e-06Z" fill="#14A9C0"/>
<path id="Vector_12" d="M17.1841 -3.8147e-06H16.6933V26.7424H17.1841V-3.8147e-06Z" fill="#15A9C1"/>
<path id="Vector_13" d="M17.6749 -3.8147e-06H17.1841V26.7424H17.6749V-3.8147e-06Z" fill="#15A9C2"/>
<path id="Vector_14" d="M18.1657 -3.8147e-06H17.6749V26.7424H18.1657V-3.8147e-06Z" fill="#16A9C3"/>
<path id="Vector_15" d="M18.6565 -3.8147e-06H18.1657V26.7424H18.6565V-3.8147e-06Z" fill="#16A9C4"/>
<path id="Vector_16" d="M19.1473 -3.8147e-06H18.6565V26.7424H19.1473V-3.8147e-06Z" fill="#17A9C5"/>
<path id="Vector_17" d="M19.6381 -3.8147e-06H19.1473V26.7424H19.6381V-3.8147e-06Z" fill="#18A9C6"/>
<path id="Vector_18" d="M20.1301 -3.8147e-06H19.6393V26.7424H20.1301V-3.8147e-06Z" fill="#18A9C7"/>
<path id="Vector_19" d="M20.6209 -3.8147e-06H20.1301V26.7424H20.6209V-3.8147e-06Z" fill="#19A9C8"/>
<path id="Vector_20" d="M21.1117 -3.8147e-06H20.6209V26.7424H21.1117V-3.8147e-06Z" fill="#19A9C9"/>
<path id="Vector_21" d="M21.6025 -3.8147e-06H21.1117V26.7424H21.6025V-3.8147e-06Z" fill="#1AA9CA"/>
<path id="Vector_22" d="M22.0933 -3.8147e-06H21.6025V26.7424H22.0933V-3.8147e-06Z" fill="#1AA9CB"/>
<path id="Vector_23" d="M22.5841 -3.8147e-06H22.0933V26.7424H22.5841V-3.8147e-06Z" fill="#1BA9CC"/>
<path id="Vector_24" d="M23.0749 -3.8147e-06H22.5841V26.7424H23.0749V-3.8147e-06Z" fill="#1CA9CD"/>
<path id="Vector_25" d="M23.5669 -3.8147e-06H23.0761V26.7424H23.5669V-3.8147e-06Z" fill="#1CA9CE"/>
<path id="Vector_26" d="M24.0577 -3.8147e-06H23.5669V26.7424H24.0577V-3.8147e-06Z" fill="#1DA9CF"/>
<path id="Vector_27" d="M24.5485 -3.8147e-06H24.0577V26.7424H24.5485V-3.8147e-06Z" fill="#1DA9D0"/>
<path id="Vector_28" d="M25.0393 -3.8147e-06H24.5485V26.7424H25.0393V-3.8147e-06Z" fill="#1EA9D1"/>
<path id="Vector_29" d="M25.5301 -3.8147e-06H25.0393V26.7424H25.5301V-3.8147e-06Z" fill="#1EA9D2"/>
<path id="Vector_30" d="M26.0209 -3.8147e-06H25.5301V26.7424H26.0209V-3.8147e-06Z" fill="#1FA9D3"/>
<path id="Vector_31" d="M26.3473 -3.8147e-06H26.0209V26.7424H26.3473V-3.8147e-06Z" fill="#20A9D4"/>
<path id="Vector_32" d="M27.9853 -3.8147e-06H27.5929V12.0687H27.9853V-3.8147e-06Z" fill="#21AAD7"/>
<path id="Vector_33" d="M28.4761 -3.8147e-06H27.9853V12.0687H28.4761V-3.8147e-06Z" fill="#22AAD8"/>
<path id="Vector_34" d="M28.9669 -3.8147e-06H28.4761V12.0687H28.9669V-3.8147e-06Z" fill="#23AAD9"/>
<path id="Vector_35" d="M29.4577 -3.8147e-06H28.9669V12.0687H29.4577V-3.8147e-06Z" fill="#23AADA"/>
<path id="Vector_36" d="M29.9485 -3.8147e-06H29.4577V12.0687H29.9485V-3.8147e-06Z" fill="#24AADB"/>
<path id="Vector_37" d="M30.4405 -3.8147e-06H29.9497V12.0687H30.4405V-3.8147e-06Z" fill="#24AADC"/>
<path id="Vector_38" d="M30.9313 -3.8147e-06H30.4405V12.0687H30.9313V-3.8147e-06Z" fill="#25AADD"/>
<path id="Vector_39" d="M31.4221 -3.8147e-06H30.9313V12.0687H31.4221V-3.8147e-06Z" fill="#25AADE"/>
<path id="Vector_40" d="M31.9129 -3.8147e-06H31.4221V12.0687H31.9129V-3.8147e-06Z" fill="#26AADF"/>
<path id="Vector_41" d="M0.490808 0H0V26.7424H0.490808V0Z" fill="#01A79E"/>
<path id="Vector_42" d="M0.981614 -3.8147e-06H0.490807V26.7424H0.981614V-3.8147e-06Z" fill="#02A79F"/>
<path id="Vector_43" d="M1.47242 -3.8147e-06H0.981613V26.7424H1.47242V-3.8147e-06Z" fill="#02A7A0"/>
<path id="Vector_44" d="M1.96323 -3.8147e-06H1.47242V26.7424H1.96323V-3.8147e-06Z" fill="#03A7A1"/>
<path id="Vector_45" d="M2.45404 -3.8147e-06H1.96323V26.7424H2.45404V-3.8147e-06Z" fill="#03A7A2"/>
<path id="Vector_46" d="M2.946 -3.8147e-06H2.45519V26.7424H2.946V-3.8147e-06Z" fill="#04A7A3"/>
<path id="Vector_47" d="M3.43683 -3.8147e-06H2.94602V26.7424H3.43683V-3.8147e-06Z" fill="#04A7A4"/>
<path id="Vector_48" d="M3.92761 -3.8147e-06H3.4368V26.7424H3.92761V-3.8147e-06Z" fill="#05A7A5"/>
<path id="Vector_49" d="M4.41844 -3.8147e-06H3.92763V26.7424H4.41844V-3.8147e-06Z" fill="#06A7A6"/>
<path id="Vector_50" d="M4.90923 -3.8147e-06H4.41842V26.7424H4.90923V-3.8147e-06Z" fill="#06A7A7"/>
<path id="Vector_51" d="M5.40006 -3.8147e-06H4.90925V26.7424H5.40006V-3.8147e-06Z" fill="#07A7A8"/>
<path id="Vector_52" d="M5.89086 -3.8147e-06H5.40005V26.7424H5.89086V-3.8147e-06Z" fill="#07A8A9"/>
<path id="Vector_53" d="M6.38282 -3.8147e-06H5.89201V26.7424H6.38282V-3.8147e-06Z" fill="#08A8AA"/>
<path id="Vector_54" d="M6.87362 -3.8147e-06H6.38282V26.7424H6.87362V-3.8147e-06Z" fill="#09A8AB"/>
<path id="Vector_55" d="M7.36443 -3.8147e-06H6.87363V26.7424H7.36443V-3.8147e-06Z" fill="#09A8AC"/>
<path id="Vector_56" d="M7.85524 -3.8147e-06H7.36443V26.7424H7.85524V-3.8147e-06Z" fill="#0AA8AD"/>
<path id="Vector_57" d="M8.34605 -3.8147e-06H7.85524V26.7424H8.34605V-3.8147e-06Z" fill="#0AA8AE"/>
<path id="Vector_58" d="M8.83686 -3.8147e-06H8.34605V26.7424H8.83686V-3.8147e-06Z" fill="#0BA8AF"/>
<path id="Vector_59" d="M9.32766 -3.8147e-06H8.83685V26.7424H9.32766V-3.8147e-06Z" fill="#0BA8B0"/>
<path id="Vector_60" d="M9.81962 -3.8147e-06H9.32882V26.7424H9.81962V-3.8147e-06Z" fill="#0CA8B1"/>
<path id="Vector_61" d="M10.3104 -3.8147e-06H9.81962V26.7424H10.3104V-3.8147e-06Z" fill="#0DA8B2"/>
<path id="Vector_62" d="M10.8012 -3.8147e-06H10.3104V26.7424H10.8012V-3.8147e-06Z" fill="#0DA8B3"/>
<path id="Vector_63" d="M11.292 -3.8147e-06H10.8012V26.7424H11.292V-3.8147e-06Z" fill="#0EA8B4"/>
<path id="Vector_64" d="M11.7829 -3.8147e-06H11.2921V26.7424H11.7829V-3.8147e-06Z" fill="#0EA8B5"/>
<path id="Vector_65" d="M12.2737 -3.8147e-06H11.7829V26.7424H12.2737V-3.8147e-06Z" fill="#0FA8B6"/>
<path id="Vector_66" d="M12.3825 -3.8147e-06H12.2737V26.7424H12.3825V-3.8147e-06Z" fill="#0FA8B7"/>
</g>
</g>
</g>
<g id="Group_3">
<path id="Vector_67" d="M57.5873 20.508L55.4925 15.6401H48.7735L46.6604 20.508H45.1353L51.3337 6.0635H52.9568L59.1736 20.508H57.5873ZM52.1545 7.70452L49.3186 14.3298H54.9291L52.1545 7.70452Z" fill="white"/>
<path id="Vector_68" d="M73.6346 20.7652C70.7192 20.7652 68.7285 19.0079 68.7285 15.0768V6.0635H70.174V15.0768C70.174 18.0282 71.3868 19.4365 73.653 19.4365C75.9192 19.4365 77.1136 18.0282 77.1136 15.0768V6.0635H78.5591V15.0768C78.5591 19.0079 76.5623 20.7652 73.6346 20.7652Z" fill="white"/>
<path id="Vector_69" d="M93.3692 7.37386V20.508H91.9237V7.37386H88.6224V6.0635H96.6767V7.37386H93.3753H93.3692Z" fill="white"/>
<path id="Vector_70" d="M112.975 20.7652C108.731 20.7652 105.331 17.4036 105.331 13.2031C105.331 9.0026 108.835 5.81243 112.975 5.81243C117.116 5.81243 120.601 9.17405 120.601 13.3011C120.601 17.4281 117.158 20.7713 112.975 20.7713V20.7652ZM112.975 7.14117C109.631 7.14117 106.795 9.93332 106.795 13.2398C106.795 16.5463 109.57 19.4365 112.975 19.4365C116.381 19.4365 119.137 16.6627 119.137 13.3194C119.137 9.97619 116.344 7.14117 112.975 7.14117Z" fill="white"/>
<g id="Clip path group">
<mask id="mask1_188_2" style="mask-type:luminance" maskUnits="userSpaceOnUse" x="129" y="6" width="20" height="15">
<g id="clippath-1">
<path id="Vector_71" d="M144.029 20.508H142.173L138.969 8.65973L135.803 20.508H133.929L129.8 6.0635H131.289L134.847 18.6343L138.308 6.0635H139.674L143.134 18.6343L146.693 6.0635H148.181L144.035 20.508H144.029Z" fill="white"/>
</g>
</mask>
<g mask="url(#mask1_188_2)">
<g id="Group_4">
<path id="Vector_72" d="M130.076 6.06353H129.794V20.5081H130.076V6.06353Z" fill="#01A79E"/>
<path id="Vector_73" d="M130.364 6.06356H130.082V20.5081H130.364V6.06356Z" fill="#02A79F"/>
<path id="Vector_74" d="M130.646 6.06356H130.364V20.5081H130.646V6.06356Z" fill="#02A7A0"/>
<path id="Vector_75" d="M130.927 6.06356H130.646V20.5081H130.927V6.06356Z" fill="#03A7A1"/>
<path id="Vector_76" d="M131.209 6.06356H130.927V20.5081H131.209V6.06356Z" fill="#03A7A2"/>
<path id="Vector_77" d="M131.491 6.06356H131.209V20.5081H131.491V6.06356Z" fill="#04A7A3"/>
<path id="Vector_78" d="M131.773 6.06356H131.491V20.5081H131.773V6.06356Z" fill="#04A7A4"/>
<path id="Vector_79" d="M132.06 6.06356H131.779V20.5081H132.06V6.06356Z" fill="#05A7A5"/>
<path id="Vector_80" d="M132.342 6.06356H132.06V20.5081H132.342V6.06356Z" fill="#06A7A6"/>
<path id="Vector_81" d="M132.624 6.06356H132.342V20.5081H132.624V6.06356Z" fill="#06A7A7"/>
<path id="Vector_82" d="M132.906 6.06356H132.624V20.5081H132.906V6.06356Z" fill="#07A7A8"/>
<path id="Vector_83" d="M133.187 6.06356H132.906V20.5081H133.187V6.06356Z" fill="#07A8A9"/>
<path id="Vector_84" d="M133.469 6.06356H133.187V20.5081H133.469V6.06356Z" fill="#08A8AA"/>
<path id="Vector_85" d="M133.757 6.06356H133.475V20.5081H133.757V6.06356Z" fill="#09A8AB"/>
<path id="Vector_86" d="M134.039 6.06356H133.757V20.5081H134.039V6.06356Z" fill="#09A8AC"/>
<path id="Vector_87" d="M134.321 6.06356H134.039V20.5081H134.321V6.06356Z" fill="#0AA8AD"/>
<path id="Vector_88" d="M134.602 6.06356H134.321V20.5081H134.602V6.06356Z" fill="#0AA8AE"/>
<path id="Vector_89" d="M134.884 6.06356H134.602V20.5081H134.884V6.06356Z" fill="#0BA8AF"/>
<path id="Vector_90" d="M135.166 6.06356H134.884V20.5081H135.166V6.06356Z" fill="#0BA8B0"/>
<path id="Vector_91" d="M135.454 6.06356H135.172V20.5081H135.454V6.06356Z" fill="#0CA8B1"/>
<path id="Vector_92" d="M135.735 6.06356H135.454V20.5081H135.735V6.06356Z" fill="#0DA8B2"/>
<path id="Vector_93" d="M136.017 6.06356H135.735V20.5081H136.017V6.06356Z" fill="#0DA8B3"/>
<path id="Vector_94" d="M136.299 6.06356H136.017V20.5081H136.299V6.06356Z" fill="#0EA8B4"/>
<path id="Vector_95" d="M136.581 6.06356H136.299V20.5081H136.581V6.06356Z" fill="#0EA8B5"/>
<path id="Vector_96" d="M136.862 6.06356H136.581V20.5081H136.862V6.06356Z" fill="#0FA8B6"/>
<path id="Vector_97" d="M137.15 6.06356H136.869V20.5081H137.15V6.06356Z" fill="#0FA8B7"/>
<path id="Vector_98" d="M137.432 6.06356H137.15V20.5081H137.432V6.06356Z" fill="#10A8B8"/>
<path id="Vector_99" d="M137.714 6.06356H137.432V20.5081H137.714V6.06356Z" fill="#11A8B9"/>
<path id="Vector_100" d="M137.996 6.06356H137.714V20.5081H137.996V6.06356Z" fill="#11A8BA"/>
<path id="Vector_101" d="M138.277 6.06356H137.996V20.5081H138.277V6.06356Z" fill="#12A8BB"/>
<path id="Vector_102" d="M138.559 6.06356H138.277V20.5081H138.559V6.06356Z" fill="#12A8BC"/>
<path id="Vector_103" d="M138.847 6.06356H138.565V20.5081H138.847V6.06356Z" fill="#13A8BD"/>
<path id="Vector_104" d="M139.129 6.06356H138.847V20.5081H139.129V6.06356Z" fill="#14A9BF"/>
<path id="Vector_105" d="M139.41 6.06356H139.129V20.5081H139.41V6.06356Z" fill="#14A9C0"/>
<path id="Vector_106" d="M139.692 6.06356H139.41V20.5081H139.692V6.06356Z" fill="#15A9C1"/>
<path id="Vector_107" d="M139.974 6.06356H139.692V20.5081H139.974V6.06356Z" fill="#15A9C2"/>
<path id="Vector_108" d="M140.256 6.06356H139.974V20.5081H140.256V6.06356Z" fill="#16A9C3"/>
<path id="Vector_109" d="M140.544 6.06356H140.262V20.5081H140.544V6.06356Z" fill="#16A9C4"/>
<path id="Vector_110" d="M140.825 6.06356H140.544V20.5081H140.825V6.06356Z" fill="#17A9C5"/>
<path id="Vector_111" d="M141.107 6.06356H140.825V20.5081H141.107V6.06356Z" fill="#18A9C6"/>
<path id="Vector_112" d="M141.389 6.06356H141.107V20.5081H141.389V6.06356Z" fill="#18A9C7"/>
<path id="Vector_113" d="M141.671 6.06356H141.389V20.5081H141.671V6.06356Z" fill="#19A9C8"/>
<path id="Vector_114" d="M141.952 6.06356H141.671V20.5081H141.952V6.06356Z" fill="#19A9C9"/>
<path id="Vector_115" d="M142.24 6.06356H141.958V20.5081H142.24V6.06356Z" fill="#1AA9CA"/>
<path id="Vector_116" d="M142.522 6.06356H142.24V20.5081H142.522V6.06356Z" fill="#1AA9CB"/>
<path id="Vector_117" d="M142.804 6.06356H142.522V20.5081H142.804V6.06356Z" fill="#1BA9CC"/>
<path id="Vector_118" d="M143.085 6.06356H142.804V20.5081H143.085V6.06356Z" fill="#1CA9CD"/>
<path id="Vector_119" d="M143.367 6.06356H143.085V20.5081H143.367V6.06356Z" fill="#1CA9CE"/>
<path id="Vector_120" d="M143.649 6.06356H143.367V20.5081H143.649V6.06356Z" fill="#1DA9CF"/>
<path id="Vector_121" d="M143.937 6.06356H143.655V20.5081H143.937V6.06356Z" fill="#1DA9D0"/>
<path id="Vector_122" d="M144.219 6.06356H143.937V20.5081H144.219V6.06356Z" fill="#1EA9D1"/>
<path id="Vector_123" d="M144.5 6.06356H144.219V20.5081H144.5V6.06356Z" fill="#1EA9D2"/>
<path id="Vector_124" d="M144.782 6.06356H144.5V20.5081H144.782V6.06356Z" fill="#1FA9D3"/>
<path id="Vector_125" d="M145.064 6.06356H144.782V20.5081H145.064V6.06356Z" fill="#20A9D4"/>
<path id="Vector_126" d="M145.345 6.06356H145.064V20.5081H145.345V6.06356Z" fill="#20AAD5"/>
<path id="Vector_127" d="M145.627 6.06356H145.345V20.5081H145.627V6.06356Z" fill="#21AAD6"/>
<path id="Vector_128" d="M145.915 6.06356H145.633V20.5081H145.915V6.06356Z" fill="#21AAD7"/>
<path id="Vector_129" d="M146.197 6.06356H145.915V20.5081H146.197V6.06356Z" fill="#22AAD8"/>
<path id="Vector_130" d="M146.479 6.06356H146.197V20.5081H146.479V6.06356Z" fill="#23AAD9"/>
<path id="Vector_131" d="M146.76 6.06356H146.479V20.5081H146.76V6.06356Z" fill="#23AADA"/>
<path id="Vector_132" d="M147.042 6.06356H146.76V20.5081H147.042V6.06356Z" fill="#24AADB"/>
<path id="Vector_133" d="M147.324 6.06356H147.042V20.5081H147.324V6.06356Z" fill="#24AADC"/>
<path id="Vector_134" d="M147.612 6.06356H147.33V20.5081H147.612V6.06356Z" fill="#25AADD"/>
<path id="Vector_135" d="M147.893 6.06356H147.612V20.5081H147.893V6.06356Z" fill="#25AADE"/>
<path id="Vector_136" d="M148.175 6.06356H147.893V20.5081H148.175V6.06356Z" fill="#26AADF"/>
</g>
</g>
</g>
<path id="Vector_137" d="M165.019 20.7652C160.774 20.7652 157.375 17.4036 157.375 13.2031C157.375 9.0026 160.872 5.81243 165.019 5.81243C169.165 5.81243 172.644 9.17405 172.644 13.3011C172.644 17.4281 169.202 20.7713 165.019 20.7713V20.7652ZM165.019 7.14117C161.675 7.14117 158.839 9.93332 158.839 13.2398C158.839 16.5463 161.613 19.4365 165.019 19.4365C168.424 19.4365 171.18 16.6627 171.18 13.3194C171.18 9.97619 168.387 7.14117 165.019 7.14117Z" fill="white"/>
<path id="Vector_138" d="M188.961 15.1135L193.01 20.508H191.209L186.34 13.9624C190.388 13.9624 191.754 13.2582 191.754 10.662C191.754 8.25557 190.266 7.37997 186.903 7.37997H184.87V20.5141H183.424V6.06961H187.001C191.54 6.06961 193.218 7.71062 193.218 10.7232C193.218 13.2827 191.73 14.8257 188.955 15.1196L188.961 15.1135Z" fill="white"/>
<path id="Vector_139" d="M212.297 20.508L208.212 14.3298L204.108 20.508H202.405L207.312 13.1174L202.675 6.0635H204.378L208.212 11.8499L212.022 6.0635H213.706L209.069 13.1174L214 20.508H212.297Z" fill="white"/>
</g>
</g>
</svg>
