<svg width="55" height="55" viewBox="0 0 55 55" fill="none" xmlns="http://www.w3.org/2000/svg">
<g id="Group 136">
<rect id="Rectangle 484" width="55" height="55" rx="7" fill="#6571FF"/>
<path id="Vector" d="M13.3668 32.0215H17.3069V33.8027H16.1091V33.2182H13.3668C12.8935 33.2182 12.4623 33.4128 12.149 33.7251C11.8356 34.0375 11.6421 34.4696 11.6421 34.943V43.8024C11.6421 44.2757 11.8366 44.7069 12.149 45.0202C12.4613 45.3336 12.8935 45.5271 13.3668 45.5271H15.4547V43.9011C15.4547 43.6098 15.5735 43.3453 15.7661 43.1537V43.1518C15.9578 42.9601 16.2232 42.8404 16.5154 42.8404H38.3918C38.6841 42.8404 38.9495 42.9592 39.1421 43.1518V43.1537C39.3337 43.3453 39.4535 43.6108 39.4535 43.9011V45.5271H41.5414C42.0147 45.5271 42.4459 45.3326 42.7592 45.0202C43.0726 44.7069 43.2661 44.2757 43.2661 43.8024V34.943C43.2661 34.4696 43.0716 34.0385 42.7592 33.7251C42.4459 33.4118 42.0147 33.2182 41.5414 33.2182H38.799V33.8027H37.5956V32.605H37.6013V32.0205H41.5414C42.3453 32.0205 43.0764 32.3492 43.6053 32.8781C44.1342 33.407 44.4629 34.1381 44.4629 34.942V43.8014C44.4629 44.6054 44.1342 45.3365 43.6053 45.8654C43.0764 46.3952 42.3453 46.7229 41.5414 46.7229H38.3928V45.6642L38.3909 45.6622H38.2644C38.2596 45.6689 38.2567 45.6699 38.2567 45.6622V44.0362H16.6524V45.6622C16.6524 45.6699 16.6496 45.6689 16.6448 45.6622H16.5183L16.5164 45.6642V46.7229H13.3668C12.5629 46.7229 11.8318 46.3943 11.3019 45.8654C10.773 45.3365 10.4443 44.6054 10.4443 43.8014V34.942C10.4443 34.1381 10.773 33.407 11.3019 32.8781C11.8308 32.3492 12.5619 32.0205 13.3668 32.0205V32.0215ZM38.3928 45.6642V45.5358C38.3746 45.5473 38.3219 45.5693 38.3017 45.5722L38.3928 45.6642ZM38.3008 45.575C38.2969 45.5952 38.2759 45.6469 38.2644 45.6642H38.3909L38.3008 45.575ZM16.6438 45.6642C16.6323 45.6469 16.6103 45.5942 16.6064 45.575L16.5164 45.6642H16.6429H16.6438ZM16.6064 45.5731C16.5863 45.5693 16.5327 45.5482 16.5154 45.5358V45.6642L16.6064 45.5731Z" fill="white"/>
<path id="Vector_2" d="M16.5842 42.8403H38.4605C38.7528 42.8403 39.0182 42.9591 39.2098 43.1517C39.4015 43.3434 39.5213 43.6088 39.5213 43.901V45.6632C39.5213 45.9554 39.4024 46.2208 39.2098 46.4125C39.0182 46.6041 38.7528 46.7239 38.4605 46.7239H16.5842C16.2919 46.7239 16.0265 46.6051 15.8348 46.4125C15.6432 46.2199 15.5234 45.9554 15.5234 45.6632V43.901C15.5234 43.6088 15.6423 43.3434 15.8348 43.1517C16.0265 42.9601 16.2919 42.8403 16.5842 42.8403ZM38.3245 44.0381H16.7212V45.5271H38.3245V44.0381Z" fill="white"/>
<path id="Vector_3" d="M30.6317 11.5796L38.692 18.5303H38.693C38.9431 18.7449 38.9718 19.1225 38.7553 19.3735C38.6374 19.5105 38.4697 19.5814 38.302 19.5814H32.9726C32.0652 19.5814 31.2354 19.2566 30.6289 18.7334C29.9993 18.1901 29.6084 17.4351 29.6084 16.5976V12.0012C29.6084 11.6706 29.8767 11.4023 30.2073 11.4023C30.373 11.4023 30.5235 11.4704 30.6317 11.5796ZM36.6942 18.3837L30.8052 13.3063V16.5976C30.8052 17.0719 31.0371 17.5089 31.4098 17.8308C31.8055 18.1719 32.3584 18.3837 32.9726 18.3837H36.6942Z" fill="white"/>
<path id="Vector_4" d="M19.5576 11.4023H30.2241L30.6151 11.5499L37.0407 17.0901L38.6744 18.4996L38.8823 18.6788V34.9996H16.1934V14.3861C16.1934 13.5487 16.5843 12.7936 17.2138 12.2503C17.8204 11.7272 18.6502 11.4023 19.5576 11.4023ZM30.0047 12.6001H19.5576C18.9434 12.6001 18.3905 12.8118 17.9948 13.153C17.622 13.4749 17.3901 13.9109 17.3901 14.3861V33.8029H37.6846V19.2221L36.2588 17.9928L30.0047 12.6001Z" fill="white"/>
<path id="Vector_5" d="M35.2523 22.6025H19.7393V23.8003H35.2523V22.6025Z" fill="white"/>
<path id="Vector_6" d="M35.2523 26.2793H19.7393V27.477H35.2523V26.2793Z" fill="white"/>
<path id="Vector_7" d="M35.2523 29.9561H19.7393V31.1538H35.2523V29.9561Z" fill="white"/>
<g id="Group">
<path id="Vector_8" d="M26.7344 35.846C26.7344 35.6246 26.8244 35.4253 26.9691 35.2797C27.1138 35.135 27.3141 35.0449 27.5354 35.0449C27.7568 35.0449 27.957 35.134 28.1017 35.2797C28.2464 35.4244 28.3365 35.6246 28.3365 35.846C28.3365 36.0673 28.2474 36.2676 28.1017 36.4123C27.957 36.5569 27.7568 36.647 27.5354 36.647C27.3141 36.647 27.1148 36.5569 26.9691 36.4123C26.8235 36.2676 26.7344 36.0673 26.7344 35.846Z" fill="white"/>
<path id="Vector_9" d="M26.7344 39.3728C26.7344 39.1515 26.8244 38.9512 26.9691 38.8065C27.1138 38.6618 27.3141 38.5718 27.5354 38.5718C27.7568 38.5718 27.957 38.6618 28.1017 38.8065C28.2464 38.9512 28.3365 39.1515 28.3365 39.3728C28.3365 39.5942 28.2474 39.7935 28.1017 39.9391C27.957 40.0838 27.7568 40.1739 27.5354 40.1739C27.3141 40.1739 27.1148 40.0838 26.9691 39.9391C26.8244 39.7944 26.7344 39.5942 26.7344 39.3728Z" fill="white"/>
<path id="Vector_10" d="M26.7344 42.9011C26.7344 42.6798 26.8244 42.4805 26.9691 42.3349C27.1138 42.1902 27.3141 42.1001 27.5354 42.1001C27.7568 42.1001 27.957 42.1902 28.1017 42.3349C28.2464 42.4795 28.3365 42.6798 28.3365 42.9011C28.3365 43.1225 28.2474 43.3218 28.1017 43.4674C27.9561 43.6131 27.7568 43.7022 27.5354 43.7022C27.3141 43.7022 27.1148 43.6121 26.9691 43.4674C26.8244 43.3227 26.7344 43.1225 26.7344 42.9011Z" fill="white"/>
</g>
</g>
</svg>
